<svg width="339" height="44" viewBox="0 0 339 44" fill="none" xmlns="http://www.w3.org/2000/svg">
<path d="M35.791 7.0724C35.925 1.17587 38.2438 0.0263615 38.2438 0.0263615C38.2438 0.0263615 33.2114 -0.143936 32.1048 0.381147C26.9737 2.26861 26.1631 8.0729 26.1561 11.8123C26.1631 11.2589 26.1138 0.792698 14.9282 0.06184C14.5899 0.0405529 0 0.0263615 0 0.0263615C0 0.0263615 2.34002 1.17587 2.45984 7.0724V24.8755C2.82635 20.9019 4.59546 16.1762 8.85966 10.748C12.5036 15.3886 14.3291 19.5183 15.0057 23.1016C17.5995 20.9303 21.18 19.0854 26.1208 17.9927C26.1208 17.9927 26.6847 24.7904 23.9006 31.0488C27.0442 30.2328 30.7797 30.0767 35.1778 31.0417C35.5091 29.8638 35.7276 28.6292 35.7981 27.3519L35.791 7.0724Z" fill="#229E82"/>
<path d="M8.40152 39.2016C8.26056 35.6325 8.73279 28.3735 15.0057 23.1014C14.3221 19.5181 12.5036 15.3884 8.85966 10.7478C4.59547 16.176 2.82635 20.9018 2.45984 24.8754C2.45984 24.8754 1.38851 33.3902 8.40152 39.2016Z" fill="#F78F35"/>
<path d="M26.1208 17.9926C21.18 19.0924 17.5995 20.9302 15.0057 23.1015C8.72574 28.3736 8.25351 35.6325 8.40152 39.2016C8.57772 39.379 11.0305 40.9898 11.0305 40.9898C12.9617 37.8322 16.9933 32.8439 23.9006 31.0487C26.6917 24.7902 26.1208 17.9926 26.1208 17.9926Z" fill="#FCB53E"/>
<path d="M23.9006 31.0487C16.9933 32.8439 12.9547 37.8322 11.0305 40.9897C11.0376 40.9897 11.0517 40.9968 11.0587 41.0039C15.1397 43.2888 19.4109 42.9907 19.4109 42.9907C26.8961 42.9836 33.2043 37.9386 35.1778 31.0416C30.7797 30.0694 27.0442 30.2326 23.9006 31.0487Z" fill="#FFCA43"/>
<path d="M107.387 13.3589V12.9189H103.638V13.3589C104.342 13.5505 104.568 13.9478 104.568 14.409C104.568 15.0122 104.321 15.6366 104.046 16.3604L101.805 22.2924L98.2738 13.7775C98.0483 13.2737 97.5267 12.9189 96.9205 12.9189H93.636V13.3518C94.6862 13.4724 95.1796 14.1962 95.7717 15.6579L100.515 27.1529H101.037L105.597 15.6579C106.104 14.3736 106.563 13.5859 107.387 13.3589Z" fill="#F78F35"/>
<path d="M119.912 25.8118C119.672 25.45 119.158 24.2508 119.158 24.2508L114.555 12.9189H112.624L108.141 24.4353C107.655 25.6841 107.204 26.4718 106.436 26.7201V27.1529H109.685V26.7201C109.044 26.5782 108.903 26.3156 108.903 25.9183C108.903 25.4145 109.121 24.9391 109.318 24.4353L110.185 22.3066H115.197L116.825 26.2873C117.064 26.8123 117.593 27.1246 118.199 27.16H121.357V26.7272C120.737 26.6633 120.293 26.3937 119.912 25.8118ZM110.643 21.0364L112.596 15.9346L114.682 21.0364H110.643Z" fill="#F78F35"/>
<path d="M91.0212 24.7688C91.0212 22.9168 91.0282 14.4587 91.0212 14.4303C90.9718 13.5859 90.2458 12.9189 89.3648 12.9189H89.3578H86.4609V13.3518C87.5111 13.5505 87.7014 14.2529 87.7014 15.6295V24.6978C87.6662 25.8899 87.4124 26.5285 86.4398 26.713V27.1458H92.2898V26.713C91.3242 26.5356 91.0705 25.9183 91.0212 24.7688Z" fill="#F78F35"/>
<path d="M56.4495 13.3518C57.4926 13.5505 57.6899 14.2529 57.6899 15.6295V23.5767C56.4495 24.9391 55.0891 25.6061 53.7077 25.6061C51.8047 25.6061 51.1069 24.5346 51.1069 22.2214V19.6457C51.1069 17.0274 51.1069 14.4445 51.1069 14.4303C51.0575 13.5859 50.3316 12.9189 49.4505 12.9189H49.4435H46.6594V13.3518C47.7096 13.5505 47.8999 14.2529 47.8999 15.6295V21.3132V22.4059C47.8999 25.599 49.4082 27.1529 52.5236 27.1529C54.5041 27.1529 56.1816 26.4859 57.697 25.0739V25.6912C57.7463 26.5072 58.4441 27.1529 59.2969 27.1529H62.1022V26.7201C61.1436 26.5356 60.9251 25.9254 60.9039 24.7191V15.6295C60.9039 14.2458 61.0943 13.5505 62.1374 13.3518V12.9189H56.4495V13.3518Z" fill="#F78F35"/>
<path d="M136.581 24.4424V18.7587V17.666C136.581 14.4729 135.073 12.9189 131.957 12.9189C129.977 12.9189 128.299 13.5859 126.784 14.998V14.3807C126.735 13.5647 126.037 12.9189 125.184 12.9189H122.379V13.3518C123.337 13.5363 123.556 14.1465 123.577 15.3528V24.4424C123.577 25.826 123.387 26.5214 122.344 26.7201V27.1529H128.032V26.7201C126.988 26.5214 126.791 25.8189 126.791 24.4424V16.4952C128.032 15.1328 129.392 14.4658 130.773 14.4658C132.676 14.4658 133.374 15.5373 133.374 17.8505V20.4262C133.374 23.0445 133.374 25.6274 133.374 25.6416C133.423 26.4859 134.149 27.1529 135.03 27.1529H135.038H137.822V26.7201C136.771 26.5214 136.581 25.8189 136.581 24.4424Z" fill="#F78F35"/>
<path d="M76.7625 12.9189H75.5432V13.3589H76.7766C77.8057 13.5647 77.996 14.26 77.996 15.6366V27.8199C77.9678 28.4018 77.7563 28.9411 77.418 29.381C77.418 29.3881 77.411 29.3881 77.411 29.3952C77.3687 29.4449 77.3264 29.5016 77.2841 29.5513L77.2771 29.5584C77.0938 29.7571 76.8894 29.9345 76.6568 30.0835C76.6427 30.0906 76.6357 30.0977 76.6216 30.1048C76.6075 30.1119 76.5863 30.126 76.5722 30.1331C76.2339 30.3247 75.8463 30.4453 75.4234 30.4737C75.2472 30.4808 75.1062 30.4879 74.9582 30.4737V30.8995C75.2753 30.9279 75.6137 30.942 76.0084 30.9279C76.7696 30.9066 77.3475 30.8072 77.8832 30.6227C77.9184 30.6086 77.9607 30.6015 77.996 30.5873C79.8426 29.9274 81.1536 28.2386 81.21 26.2447V15.6366C81.21 14.26 81.4073 13.5647 82.4293 13.3589H83.6628V12.9189H82.4505H76.7625Z" fill="#F78F35"/>
<path d="M66.3875 12.9189H65.1681V13.3589H66.4016C67.4306 13.5647 67.6209 14.26 67.6209 15.6366V27.8199C67.5928 28.4018 67.3813 28.9411 67.043 29.381C67.043 29.3881 67.0359 29.3881 67.0359 29.3952C66.9936 29.4449 66.9514 29.5016 66.9091 29.5513L66.902 29.5584C66.7188 29.7571 66.5144 29.9345 66.2818 30.0835C66.2677 30.0906 66.2606 30.0977 66.2465 30.1048C66.2324 30.1119 66.2113 30.126 66.1972 30.1331C65.8589 30.3247 65.4712 30.4453 65.0483 30.4737C64.8721 30.4808 64.7312 30.4879 64.5831 30.4737V30.8995C64.9003 30.9279 65.2386 30.942 65.6333 30.9279C66.3945 30.9066 66.9725 30.8072 67.5082 30.6227C67.5434 30.6086 67.5857 30.6015 67.6209 30.5873C69.4676 29.9274 70.7786 28.2386 70.8349 26.2447V15.6366C70.8349 14.26 71.0323 13.5647 72.0543 13.3589H73.2877V12.9189H72.0754H66.3875Z" fill="#F78F35"/>
<path d="M146.618 25.7407C148.683 25.7407 149.712 25.0312 149.712 23.6049C149.712 23.165 149.62 22.796 149.437 22.4838C149.254 22.1787 149.007 21.9091 148.69 21.682C148.38 21.4549 148.02 21.2633 147.619 21.1001C147.217 20.9369 146.794 20.7737 146.343 20.6105C145.828 20.4332 145.335 20.2345 144.877 20.0074C144.412 19.7803 144.017 19.5178 143.672 19.2056C143.333 18.9005 143.066 18.5315 142.868 18.1058C142.671 17.68 142.572 17.1691 142.572 16.566C142.572 15.3242 142.995 14.3521 143.834 13.6497C144.673 12.9543 145.835 12.5995 147.316 12.5995C148.168 12.5995 148.951 12.6917 149.649 12.8762C150.346 13.0607 150.861 13.2594 151.185 13.4794L150.558 15.0972C150.276 14.9198 149.846 14.7424 149.282 14.5721C148.718 14.4018 148.063 14.3166 147.316 14.3166C146.935 14.3166 146.583 14.3592 146.258 14.4373C145.934 14.5224 145.645 14.6431 145.406 14.8063C145.159 14.9695 144.969 15.1823 144.828 15.4307C144.687 15.6861 144.616 15.9841 144.616 16.3247C144.616 16.7079 144.694 17.0272 144.842 17.2898C144.99 17.5523 145.201 17.7794 145.476 17.978C145.751 18.1767 146.061 18.3541 146.42 18.5244C146.78 18.6876 147.175 18.8508 147.612 19.014C148.225 19.2624 148.782 19.5036 149.296 19.752C149.804 20.0003 150.248 20.2912 150.621 20.6318C150.995 20.9724 151.284 21.3769 151.488 21.8523C151.693 22.3206 151.791 22.8954 151.791 23.5624C151.791 24.8041 151.34 25.762 150.438 26.4361C149.536 27.1102 148.26 27.4437 146.618 27.4437C146.061 27.4437 145.547 27.4082 145.081 27.3302C144.616 27.2521 144.193 27.167 143.827 27.0676C143.46 26.9683 143.143 26.8548 142.882 26.7412C142.614 26.6277 142.41 26.5284 142.262 26.4432L142.854 24.8041C143.164 24.9815 143.643 25.1802 144.278 25.4001C144.912 25.6272 145.695 25.7407 146.618 25.7407Z" fill="#229E82"/>
<path d="M159.699 25.1802C159.565 24.8538 159.382 24.4351 159.157 23.9313C158.931 23.4276 158.692 22.8812 158.431 22.2922C158.17 21.7033 157.895 21.1002 157.606 20.4757C157.31 19.8513 157.035 19.2695 156.781 18.7089C156.521 18.1554 156.281 17.6587 156.055 17.2188C155.83 16.7789 155.654 16.4454 155.513 16.2112C155.365 17.8219 155.245 19.5746 155.146 21.4549C155.055 23.3353 154.97 25.2299 154.907 27.1457H152.968C153.025 25.9181 153.081 24.6764 153.152 23.4205C153.222 22.1716 153.3 20.937 153.384 19.7307C153.469 18.5173 153.567 17.3394 153.666 16.1899C153.765 15.0404 153.878 13.9548 153.997 12.9259H155.731C156.098 13.529 156.492 14.2386 156.915 15.0617C157.338 15.8848 157.761 16.7434 158.177 17.6375C158.6 18.5315 159.009 19.4256 159.403 20.3267C159.798 21.2208 160.158 22.0368 160.482 22.7747C160.806 22.0368 161.165 21.2208 161.56 20.3267C161.955 19.4327 162.364 18.5386 162.779 17.6375C163.202 16.7434 163.618 15.8848 164.041 15.0617C164.464 14.2386 164.859 13.529 165.225 12.9259H166.959C167.424 17.5097 167.77 22.2426 168.002 27.1386H166.064C165.994 25.2228 165.909 23.3282 165.817 21.4478C165.719 19.5675 165.599 17.8219 165.451 16.2112C165.317 16.4454 165.134 16.7789 164.908 17.2188C164.683 17.6587 164.443 18.1554 164.189 18.7089C163.928 19.2624 163.653 19.8513 163.365 20.4757C163.076 21.1002 162.801 21.7033 162.54 22.2922C162.279 22.8812 162.039 23.4276 161.821 23.9313C161.595 24.4351 161.419 24.8538 161.278 25.1802H159.699Z" fill="#229E82"/>
<path d="M179.723 27.1386C179.491 26.5213 179.272 25.9181 179.068 25.3221C178.864 24.7261 178.652 24.1229 178.434 23.5056H172.034L170.751 27.1386H168.693C169.236 25.6343 169.743 24.2436 170.215 22.9663C170.688 21.6891 171.153 20.4757 171.611 19.3262C172.062 18.1767 172.513 17.0769 172.964 16.0338C173.415 14.9908 173.88 13.9548 174.367 12.9259H176.178C176.665 13.9477 177.137 14.9837 177.588 16.0338C178.039 17.0769 178.49 18.1767 178.941 19.3262C179.399 20.4757 179.864 21.6891 180.337 22.9663C180.816 24.2436 181.323 25.6343 181.866 27.1386H179.723ZM177.87 21.8665C177.433 20.6744 177.003 19.5249 176.573 18.4109C176.143 17.2969 175.699 16.2254 175.234 15.2036C174.762 16.2325 174.31 17.2969 173.88 18.4109C173.451 19.5249 173.028 20.6744 172.612 21.8665H177.87Z" fill="#229E82"/>
<path d="M191.48 25.4073V27.1315L182.987 27.1386L182.98 12.9259H184.953L184.96 25.4144L191.48 25.4073Z" fill="#229E82"/>
<path d="M201.235 25.4002V27.1244L192.742 27.1315L192.735 12.9188H194.708L194.715 25.4073L201.235 25.4002Z" fill="#229E82"/>
<path d="M206.394 27.1243L206.387 12.9116L214.901 12.9045V14.6075H208.361V18.8933H214.168V20.575H208.361V27.1172L206.394 27.1243Z" fill="#229E82"/>
<path d="M216.508 12.9045H218.482L218.489 27.1172H216.515L216.508 12.9045Z" fill="#229E82"/>
<path d="M230.859 27.1102C230.563 26.6064 230.217 26.0387 229.83 25.4072C229.442 24.7757 229.026 24.1229 228.575 23.4488C228.124 22.7747 227.659 22.0864 227.179 21.391C226.7 20.6956 226.221 20.0216 225.742 19.3687C225.262 18.723 224.804 18.1057 224.353 17.531C223.902 16.9562 223.493 16.4524 223.113 16.0125L223.12 27.1102H221.181L221.174 12.8975H222.746C223.387 13.5786 224.064 14.3805 224.797 15.2887C225.523 16.197 226.242 17.1336 226.961 18.0986C227.673 19.0636 228.349 20.0074 228.977 20.9369C229.611 21.8664 230.14 22.6966 230.577 23.4204L230.57 12.8975H232.508L232.515 27.1102H230.859Z" fill="#229E82"/>
<path d="M244.631 27.1031C244.398 26.4858 244.18 25.8826 243.975 25.2866C243.771 24.6905 243.56 24.0874 243.341 23.4701H236.941L235.658 27.1031H233.6C234.143 25.5988 234.651 24.208 235.123 22.9308C235.595 21.6536 236.06 20.4402 236.518 19.2907C236.969 18.1412 237.421 17.0414 237.872 15.9983C238.323 14.9552 238.788 13.9193 239.274 12.8904H241.086C241.572 13.9122 242.044 14.9481 242.495 15.9983C242.946 17.0414 243.397 18.1412 243.849 19.2907C244.307 20.4402 244.772 21.6536 245.244 22.9308C245.723 24.208 246.231 25.5988 246.774 27.1031H244.631ZM242.777 21.831C242.34 20.6389 241.91 19.4894 241.48 18.3754C241.05 17.2613 240.606 16.1899 240.141 15.1681C239.669 16.197 239.218 17.2613 238.788 18.3754C238.358 19.4894 237.935 20.6389 237.519 21.831H242.777Z" fill="#229E82"/>
<path d="M257.564 27.096C257.268 26.5922 256.923 26.0246 256.535 25.393C256.148 24.7615 255.732 24.1087 255.281 23.4346C254.83 22.7605 254.365 22.0722 253.885 21.3769C253.406 20.6815 252.927 20.0074 252.447 19.3546C251.968 18.7089 251.51 18.0916 251.059 17.5168C250.608 16.942 250.199 16.4383 249.818 15.9983L249.825 27.096H247.887L247.88 12.8833H249.452C250.093 13.5645 250.77 14.3663 251.503 15.2746C252.229 16.1828 252.948 17.1194 253.667 18.0845C254.379 19.0495 255.055 19.9932 255.683 20.9227C256.317 21.8523 256.846 22.6825 257.283 23.4062L257.275 12.8833H259.214L259.221 27.096H257.564Z" fill="#229E82"/>
<path d="M267.975 27.4011C266.981 27.4011 266.079 27.2379 265.268 26.9115C264.451 26.5851 263.753 26.1026 263.168 25.4782C262.583 24.8467 262.132 24.0732 261.815 23.1508C261.497 22.2284 261.335 21.1711 261.335 19.979C261.335 18.7869 261.511 17.7297 261.871 16.8072C262.23 15.8848 262.717 15.1114 263.33 14.4798C263.943 13.8483 264.655 13.3729 265.466 13.0465C266.283 12.7201 267.15 12.5569 268.073 12.5498C268.658 12.5498 269.187 12.5924 269.652 12.6704C270.117 12.7556 270.526 12.8478 270.872 12.9543C271.217 13.0607 271.499 13.1742 271.717 13.2807C271.936 13.3871 272.084 13.4722 272.168 13.529L271.598 15.1681C271.478 15.083 271.301 14.9978 271.069 14.8985C270.836 14.8062 270.576 14.7069 270.287 14.6147C269.998 14.5224 269.673 14.4373 269.328 14.3805C268.983 14.3166 268.63 14.2883 268.278 14.2883C267.531 14.2883 266.861 14.416 266.262 14.6785C265.663 14.9411 265.155 15.3171 264.733 15.8067C264.31 16.2963 263.992 16.8995 263.767 17.602C263.541 18.3044 263.429 19.0991 263.429 19.9719C263.429 20.8234 263.527 21.5897 263.725 22.2922C263.922 22.9876 264.218 23.5907 264.613 24.0874C265.007 24.5841 265.501 24.9744 266.093 25.244C266.685 25.5208 267.376 25.6556 268.158 25.6556C269.067 25.6556 269.821 25.5562 270.42 25.3647C271.02 25.1731 271.464 25.0028 271.767 24.8538L272.274 26.4929C272.183 26.5638 272.006 26.649 271.767 26.7483C271.52 26.8477 271.217 26.947 270.85 27.0463C270.484 27.1386 270.054 27.2237 269.568 27.2947C269.074 27.3656 268.546 27.4011 267.975 27.4011Z" fill="#229E82"/>
<path d="M273.719 27.0889L273.712 12.8762L282.332 12.8691V14.5721H275.693V18.7941H281.599V20.4545H275.693V25.3789L282.847 25.3718V27.0748L273.719 27.0889Z" fill="#229E82"/>
<path d="M292.242 27.2024C291.96 27.2024 291.65 27.1953 291.312 27.1811C290.98 27.167 290.649 27.1457 290.311 27.1173C289.979 27.0889 289.648 27.0534 289.324 27.0179C289 26.9754 288.697 26.9257 288.429 26.8547L288.422 13.0749C288.697 13.0039 288.993 12.9543 289.317 12.9117C289.641 12.8691 289.972 12.8336 290.304 12.8052C290.635 12.7769 290.966 12.7556 291.29 12.7414C291.615 12.7272 291.925 12.7201 292.207 12.7201C293.024 12.7201 293.785 12.784 294.497 12.9046C295.209 13.0252 295.829 13.2381 296.351 13.529C296.873 13.8199 297.288 14.2102 297.584 14.6856C297.88 15.161 298.036 15.75 298.036 16.4524C298.036 17.233 297.852 17.8716 297.486 18.3683C297.119 18.865 296.633 19.2411 296.02 19.4894C296.851 19.7378 297.507 20.1209 297.993 20.6602C298.48 21.1924 298.726 21.9445 298.726 22.9166C298.726 24.3358 298.205 25.4072 297.169 26.1239C296.14 26.8406 294.497 27.2024 292.242 27.2024ZM290.381 18.8579H292.46C292.947 18.8579 293.412 18.8224 293.849 18.7514C294.286 18.6805 294.659 18.5599 294.977 18.3825C295.294 18.2051 295.548 17.9709 295.731 17.6871C295.914 17.4033 296.006 17.0343 296.006 16.6014C296.006 16.1899 295.907 15.8493 295.717 15.5655C295.526 15.2887 295.266 15.0617 294.934 14.8914C294.603 14.7211 294.208 14.5934 293.764 14.5153C293.313 14.4302 292.841 14.3947 292.341 14.3947C291.84 14.3947 291.445 14.4018 291.156 14.416C290.875 14.4302 290.614 14.4514 290.381 14.4798V18.8579ZM290.381 20.4544V25.4569C290.529 25.4711 290.705 25.4853 290.91 25.4995C291.086 25.5137 291.29 25.5208 291.53 25.5278C291.77 25.5349 292.045 25.5349 292.355 25.5349C292.94 25.5349 293.489 25.4995 294.018 25.4214C294.54 25.3434 294.998 25.2156 295.392 25.0241C295.787 24.8325 296.104 24.5628 296.337 24.2222C296.577 23.8816 296.696 23.4488 296.689 22.9308C296.689 22.4696 296.598 22.0722 296.422 21.7529C296.245 21.4336 295.992 21.1782 295.66 20.9866C295.329 20.795 294.927 20.6602 294.469 20.575C294.004 20.4899 293.489 20.4544 292.919 20.4544H290.381Z" fill="#229E82"/>
<path d="M310.151 27.0677C309.919 26.4504 309.7 25.8472 309.496 25.2512C309.292 24.6551 309.08 24.052 308.862 23.4347H302.462L301.179 27.0677H299.121C299.664 25.5634 300.171 24.1726 300.643 22.8954C301.116 21.6182 301.581 20.4048 302.039 19.2553C302.49 18.1058 302.941 17.006 303.392 15.9629C303.843 14.9198 304.308 13.8839 304.795 12.855H306.606C307.093 13.8768 307.565 14.9127 308.016 15.9629C308.467 17.006 308.918 18.1058 309.369 19.2553C309.827 20.4048 310.292 21.6182 310.765 22.8954C311.244 24.1726 311.751 25.5634 312.294 27.0677H310.151ZM308.291 21.8027C307.854 20.6106 307.424 19.4611 306.994 18.3471C306.564 17.233 306.12 16.1616 305.655 15.1398C305.182 16.1687 304.731 17.233 304.301 18.3471C303.871 19.4611 303.449 20.6106 303.033 21.8027H308.291Z" fill="#229E82"/>
<path d="M323.085 27.0605C322.789 26.5567 322.444 25.989 322.056 25.3575C321.668 24.726 321.252 24.0732 320.801 23.3991C320.35 22.725 319.885 22.0367 319.406 21.3413C318.927 20.646 318.447 19.9719 317.968 19.3191C317.489 18.6734 317.031 18.056 316.58 17.4813C316.128 16.9065 315.72 16.4027 315.339 15.9628L315.346 27.0605H313.408L313.401 12.8478H314.972C315.614 13.529 316.291 14.3308 317.024 15.239C317.75 16.1473 318.468 17.0839 319.187 18.0489C319.899 19.0139 320.576 19.9577 321.203 20.8872C321.838 21.8168 322.366 22.647 322.803 23.3707L322.796 12.8478H324.734L324.741 27.0605H323.085Z" fill="#229E82"/>
<path d="M337.865 12.8407C337.442 13.309 336.97 13.8199 336.441 14.3876C335.913 14.9552 335.356 15.5371 334.785 16.1331C334.207 16.7291 333.636 17.311 333.065 17.8857C332.494 18.4605 331.959 18.9927 331.458 19.4894C332.043 19.9009 332.664 20.4047 333.312 21.0079C333.968 21.611 334.602 22.2496 335.229 22.9379C335.857 23.6191 336.442 24.3216 336.991 25.0311C337.541 25.7407 337.999 26.4219 338.366 27.0605H336.04C335.631 26.4148 335.166 25.7691 334.63 25.1234C334.101 24.4777 333.538 23.8532 332.946 23.2572C332.354 22.6612 331.754 22.1148 331.155 21.6039C330.549 21.1001 329.964 20.6673 329.393 20.3125V27.0605H327.42L327.413 12.8478H329.386V19.1204C329.858 18.6663 330.387 18.1625 330.951 17.5948C331.522 17.0272 332.086 16.4595 332.642 15.8848C333.199 15.31 333.728 14.7565 334.221 14.2315C334.715 13.7064 335.138 13.2452 335.476 12.8478L337.865 12.8407Z" fill="#229E82"/>
<path d="M236.835 42.9197C236.652 42.9197 236.455 42.9126 236.243 42.9055C236.032 42.8984 235.821 42.8842 235.609 42.863C235.398 42.8488 235.186 42.8204 234.982 42.7991C234.777 42.7707 234.587 42.7423 234.411 42.6927V33.9224C234.587 33.8798 234.777 33.8443 234.982 33.8159C235.186 33.7875 235.398 33.7663 235.609 33.7521C235.821 33.7379 236.032 33.7237 236.236 33.7166C236.448 33.7095 236.638 33.7024 236.821 33.7024C237.343 33.7024 237.829 33.745 238.28 33.823C238.731 33.9011 239.126 34.0359 239.464 34.2204C239.796 34.4049 240.057 34.6532 240.247 34.9583C240.437 35.2634 240.529 35.6395 240.529 36.0795C240.529 36.5762 240.409 36.9806 240.176 37.2999C239.944 37.6192 239.634 37.8534 239.239 38.0095C239.768 38.1656 240.183 38.4139 240.501 38.7545C240.811 39.0951 240.966 39.5705 240.966 40.1879C240.966 41.0961 240.634 41.7702 239.972 42.2314C239.316 42.6927 238.266 42.9197 236.835 42.9197ZM235.651 37.605H236.976C237.287 37.605 237.583 37.5837 237.857 37.5412C238.132 37.4986 238.372 37.4205 238.576 37.307C238.781 37.1935 238.943 37.0445 239.056 36.86C239.175 36.6755 239.232 36.4484 239.232 36.1717C239.232 35.9092 239.168 35.6892 239.049 35.5118C238.929 35.3344 238.76 35.1925 238.548 35.079C238.337 34.9725 238.09 34.8874 237.801 34.8377C237.519 34.788 237.216 34.7597 236.892 34.7597C236.568 34.7597 236.321 34.7667 236.138 34.7738C235.954 34.7809 235.792 34.7951 235.644 34.8164V37.605H235.651ZM235.651 38.6268V41.8128C235.75 41.8199 235.863 41.8341 235.99 41.8412C236.102 41.8483 236.236 41.8554 236.384 41.8625C236.532 41.8696 236.709 41.8696 236.913 41.8696C237.287 41.8696 237.639 41.8412 237.97 41.7986C238.302 41.7489 238.598 41.6638 238.844 41.5432C239.098 41.4225 239.295 41.2522 239.45 41.0323C239.598 40.8123 239.676 40.5427 239.676 40.2092C239.676 39.9111 239.62 39.6628 239.507 39.457C239.394 39.2512 239.232 39.088 239.02 38.9674C238.809 38.8468 238.555 38.7616 238.259 38.7049C237.963 38.6552 237.639 38.6268 237.272 38.6268H235.651Z" fill="white"/>
<path d="M248.042 42.643C247.767 42.7139 247.401 42.7849 246.943 42.8629C246.492 42.941 245.963 42.9836 245.371 42.9836C244.849 42.9836 244.412 42.9055 244.06 42.7565C243.708 42.6075 243.419 42.3875 243.207 42.1108C242.989 41.8341 242.834 41.5006 242.742 41.1245C242.65 40.7484 242.601 40.3227 242.601 39.8615V36.0511H243.806V39.5989C243.806 40.4291 243.933 41.0181 244.194 41.3728C244.455 41.7276 244.892 41.905 245.505 41.905C245.632 41.905 245.773 41.8979 245.907 41.8908C246.048 41.8837 246.174 41.8695 246.294 41.8553C246.414 41.8412 246.527 41.827 246.626 41.8199C246.724 41.8057 246.795 41.7915 246.837 41.7702V36.0369H248.042V42.643Z" fill="white"/>
<path d="M250.714 34.8234C250.495 34.8234 250.312 34.7525 250.164 34.6106C250.016 34.4687 249.938 34.2771 249.938 34.0287C249.938 33.7875 250.016 33.5888 250.164 33.4469C250.319 33.305 250.502 33.234 250.714 33.234C250.932 33.234 251.115 33.305 251.263 33.4469C251.418 33.5888 251.489 33.7804 251.489 34.0287C251.489 34.2771 251.411 34.4687 251.263 34.6106C251.108 34.7525 250.925 34.8234 250.714 34.8234ZM251.32 42.8416H250.114V36.051H251.32V42.8416Z" fill="white"/>
<path d="M255.415 42.9765C254.675 42.9552 254.146 42.7991 253.836 42.494C253.526 42.1888 253.371 41.7134 253.371 41.0677V32.9218L254.576 32.7161V40.8761C254.576 41.0748 254.59 41.238 254.625 41.3728C254.661 41.5006 254.717 41.607 254.794 41.685C254.872 41.7631 254.978 41.8199 255.105 41.8624C255.231 41.8979 255.394 41.9334 255.584 41.9618L255.415 42.9765Z" fill="white"/>
<path d="M261.293 32.9218L262.498 32.7161V42.6501C262.223 42.7281 261.864 42.8062 261.434 42.8842C261.004 42.9623 260.504 43.0048 259.94 43.0048C259.418 43.0048 258.953 42.9197 258.537 42.7565C258.121 42.5933 257.769 42.3591 257.473 42.054C257.177 41.7489 256.951 41.3799 256.789 40.94C256.627 40.5001 256.549 40.0034 256.549 39.457C256.549 38.9319 256.613 38.4565 256.747 38.0237C256.881 37.5908 257.078 37.2147 257.339 36.9025C257.6 36.5903 257.917 36.342 258.29 36.1717C258.664 35.9943 259.094 35.9091 259.58 35.9091C259.968 35.9091 260.313 35.9588 260.609 36.0652C260.905 36.1717 261.131 36.271 261.279 36.3633V32.9218H261.293ZM261.293 37.4915C261.145 37.3709 260.933 37.2502 260.659 37.1367C260.384 37.0232 260.081 36.9664 259.749 36.9664C259.404 36.9664 259.108 37.0303 258.861 37.158C258.615 37.2857 258.417 37.456 258.255 37.6831C258.1 37.903 257.987 38.1656 257.917 38.4707C257.846 38.7758 257.811 39.1022 257.811 39.4499C257.811 40.2446 258.008 40.8548 258.396 41.2806C258.784 41.7134 259.305 41.9263 259.954 41.9263C260.285 41.9263 260.56 41.9121 260.778 41.8837C260.997 41.8553 261.166 41.8199 261.293 41.7844V37.4915Z" fill="white"/>
<path d="M269.751 35.8807C270.23 35.8807 270.639 35.9446 270.977 36.0723C271.309 36.2 271.576 36.3774 271.781 36.6045C271.985 36.8316 272.126 37.1083 272.211 37.4276C272.295 37.7469 272.338 38.0946 272.338 38.4778V42.721C272.232 42.7423 272.091 42.7636 271.901 42.792C271.717 42.8203 271.506 42.8487 271.273 42.8771C271.041 42.9055 270.787 42.9268 270.512 42.9481C270.237 42.9693 269.969 42.9835 269.701 42.9835C269.321 42.9835 268.968 42.941 268.651 42.8629C268.334 42.7849 268.059 42.6571 267.82 42.4939C267.587 42.3236 267.404 42.0966 267.277 41.8198C267.15 41.5431 267.08 41.2096 267.08 40.8123C267.08 40.4362 267.157 40.1169 267.305 39.8472C267.46 39.5776 267.665 39.3576 267.925 39.1944C268.186 39.0312 268.489 38.9106 268.835 38.8255C269.18 38.7474 269.546 38.7048 269.92 38.7048C270.04 38.7048 270.167 38.7119 270.301 38.7261C270.427 38.7403 270.554 38.7545 270.674 38.7758C270.794 38.7971 270.893 38.8184 270.977 38.8326C271.062 38.8467 271.125 38.8609 271.16 38.868V38.5274C271.16 38.3288 271.139 38.1301 271.097 37.9314C271.055 37.7327 270.977 37.5624 270.864 37.4063C270.752 37.2573 270.597 37.1296 270.406 37.0444C270.216 36.9522 269.962 36.9096 269.645 36.9096C269.25 36.9096 268.898 36.938 268.602 36.9948C268.306 37.0515 268.08 37.1083 267.932 37.1722L267.791 36.1646C267.946 36.0936 268.207 36.0297 268.574 35.9588C268.94 35.8878 269.328 35.8807 269.751 35.8807ZM269.857 41.9689C270.138 41.9689 270.392 41.9618 270.618 41.9476C270.836 41.9334 271.02 41.9121 271.168 41.8766V39.8543C271.083 39.8118 270.942 39.7763 270.745 39.7408C270.554 39.7124 270.315 39.6982 270.04 39.6982C269.857 39.6982 269.666 39.7124 269.462 39.7337C269.257 39.7621 269.074 39.8118 268.905 39.8969C268.736 39.9821 268.595 40.0956 268.482 40.2375C268.369 40.3794 268.313 40.571 268.313 40.8052C268.313 41.238 268.454 41.5431 268.729 41.7134C269.004 41.8837 269.377 41.9689 269.857 41.9689Z" fill="white"/>
<path d="M279.837 42.9197C279.654 42.9197 279.456 42.9126 279.245 42.9055C279.033 42.8984 278.822 42.8842 278.61 42.863C278.399 42.8488 278.188 42.8204 277.983 42.7991C277.779 42.7707 277.588 42.7423 277.412 42.6927V33.9224C277.588 33.8798 277.779 33.8443 277.983 33.8159C278.188 33.7875 278.399 33.7663 278.61 33.7521C278.822 33.7379 279.033 33.7237 279.238 33.7166C279.449 33.7095 279.64 33.7024 279.823 33.7024C280.344 33.7024 280.831 33.745 281.282 33.823C281.733 33.9011 282.128 34.0359 282.466 34.2204C282.797 34.4049 283.058 34.6532 283.248 34.9583C283.439 35.2634 283.53 35.6395 283.53 36.0795C283.53 36.5762 283.41 36.9806 283.178 37.2999C282.945 37.6192 282.635 37.8534 282.24 38.0095C282.769 38.1656 283.185 38.4139 283.502 38.7545C283.812 39.0951 283.967 39.5705 283.967 40.1879C283.967 41.0961 283.636 41.7702 282.973 42.2314C282.318 42.6927 281.275 42.9197 279.837 42.9197ZM278.66 37.605H279.985C280.295 37.605 280.591 37.5837 280.866 37.5412C281.141 37.4986 281.38 37.4205 281.585 37.307C281.789 37.1935 281.951 37.0445 282.064 36.86C282.184 36.6755 282.24 36.4484 282.24 36.1717C282.24 35.9092 282.177 35.6892 282.057 35.5118C281.937 35.3344 281.768 35.1925 281.557 35.079C281.345 34.9725 281.099 34.8874 280.81 34.8377C280.528 34.788 280.225 34.7597 279.9 34.7597C279.576 34.7597 279.329 34.7667 279.146 34.7738C278.963 34.7809 278.801 34.7951 278.653 34.8164V37.605H278.66ZM278.66 38.6268V41.8128C278.759 41.8199 278.871 41.8341 278.998 41.8412C279.111 41.8483 279.245 41.8554 279.393 41.8625C279.541 41.8696 279.717 41.8696 279.921 41.8696C280.295 41.8696 280.647 41.8412 280.979 41.7986C281.31 41.7489 281.606 41.6638 281.853 41.5432C282.106 41.4225 282.304 41.2522 282.459 41.0323C282.607 40.8123 282.684 40.5427 282.684 40.2092C282.684 39.9111 282.628 39.6628 282.515 39.457C282.402 39.2512 282.24 39.088 282.029 38.9674C281.817 38.8468 281.564 38.7616 281.268 38.7049C280.972 38.6481 280.647 38.6268 280.281 38.6268H278.66Z" fill="white"/>
<path d="M285.299 39.4641C285.299 38.8609 285.384 38.3358 285.56 37.8888C285.736 37.4418 285.962 37.0657 286.244 36.7748C286.526 36.4768 286.857 36.2568 287.231 36.1078C287.604 35.9588 287.985 35.8878 288.372 35.8878C289.282 35.8878 289.972 36.1716 290.459 36.7464C290.938 37.3141 291.185 38.1868 291.185 39.3505C291.185 39.4002 291.185 39.4712 291.185 39.5563C291.185 39.6414 291.178 39.7124 291.17 39.7834H286.554C286.603 40.4858 286.808 41.0251 287.16 41.387C287.512 41.756 288.069 41.9334 288.823 41.9334C289.246 41.9334 289.606 41.8979 289.895 41.8198C290.184 41.7489 290.402 41.6708 290.55 41.607L290.719 42.6287C290.571 42.7068 290.318 42.7919 289.944 42.8771C289.578 42.9622 289.162 43.0048 288.697 43.0048C288.112 43.0048 287.604 42.9126 287.174 42.7352C286.744 42.5578 286.392 42.3094 286.117 41.9972C285.842 41.685 285.638 41.3089 285.497 40.8832C285.363 40.4433 285.299 39.9749 285.299 39.4641ZM289.93 38.7971C289.937 38.2507 289.803 37.7966 289.521 37.4489C289.239 37.0941 288.852 36.9167 288.358 36.9167C288.083 36.9167 287.837 36.9735 287.625 37.0799C287.414 37.1863 287.238 37.3282 287.09 37.5056C286.942 37.683 286.829 37.8817 286.744 38.1088C286.66 38.3358 286.61 38.57 286.582 38.8042L289.93 38.7971Z" fill="white"/>
<path d="M294.053 36.051H296.605V37.0728H294.053V40.202C294.053 40.5426 294.081 40.8193 294.131 41.0464C294.18 41.2664 294.258 41.4438 294.363 41.5715C294.469 41.6992 294.596 41.7843 294.751 41.8411C294.906 41.8908 295.089 41.9192 295.294 41.9192C295.66 41.9192 295.949 41.8766 296.168 41.7914C296.386 41.7063 296.541 41.6495 296.626 41.6141L296.858 42.6216C296.739 42.6855 296.527 42.7565 296.224 42.8487C295.921 42.941 295.576 42.9835 295.188 42.9835C294.73 42.9835 294.349 42.9268 294.053 42.8061C293.757 42.6855 293.518 42.5152 293.334 42.274C293.151 42.0398 293.024 41.7489 292.954 41.4083C292.876 41.0677 292.841 40.6632 292.841 40.2162V34.1565L294.046 33.9507V36.051H294.053Z" fill="white"/>
<path d="M299.269 36.051H301.82V37.0728H299.269V40.202C299.269 40.5426 299.297 40.8193 299.346 41.0464C299.396 41.2664 299.473 41.4438 299.579 41.5715C299.685 41.6992 299.812 41.7843 299.967 41.8411C300.122 41.8908 300.305 41.9192 300.509 41.9192C300.876 41.9192 301.165 41.8766 301.383 41.7914C301.602 41.7063 301.757 41.6495 301.842 41.6141L302.074 42.6216C301.954 42.6855 301.743 42.7565 301.44 42.8487C301.137 42.941 300.791 42.9835 300.404 42.9835C299.946 42.9835 299.565 42.9268 299.269 42.8061C298.973 42.6855 298.733 42.5152 298.55 42.274C298.367 42.0327 298.24 41.7489 298.169 41.4083C298.092 41.0677 298.057 40.6632 298.057 40.2162V34.1565L299.262 33.9507V36.051H299.269Z" fill="white"/>
<path d="M302.849 39.4641C302.849 38.8609 302.934 38.3358 303.11 37.8888C303.286 37.4418 303.512 37.0657 303.794 36.7748C304.076 36.4768 304.407 36.2568 304.781 36.1078C305.154 35.9588 305.535 35.8878 305.922 35.8878C306.832 35.8878 307.522 36.1716 308.009 36.7464C308.488 37.3141 308.735 38.1868 308.735 39.3505C308.735 39.4002 308.735 39.4712 308.735 39.5563C308.735 39.6414 308.728 39.7124 308.721 39.7834H304.104C304.153 40.4858 304.358 41.0251 304.71 41.387C305.063 41.756 305.619 41.9334 306.374 41.9334C306.796 41.9334 307.156 41.8979 307.445 41.8198C307.734 41.7489 307.952 41.6708 308.1 41.607L308.27 42.6287C308.122 42.7068 307.868 42.7919 307.494 42.8771C307.128 42.9622 306.712 43.0048 306.247 43.0048C305.662 43.0048 305.154 42.9126 304.724 42.7352C304.294 42.5578 303.942 42.3094 303.667 41.9972C303.392 41.685 303.188 41.3089 303.047 40.8832C302.913 40.4433 302.849 39.9749 302.849 39.4641ZM307.473 38.7971C307.48 38.2507 307.346 37.7966 307.064 37.4489C306.782 37.0941 306.395 36.9167 305.901 36.9167C305.626 36.9167 305.38 36.9735 305.168 37.0799C304.957 37.1863 304.781 37.3282 304.633 37.5056C304.485 37.683 304.372 37.8817 304.287 38.1088C304.203 38.3358 304.153 38.57 304.125 38.8042L307.473 38.7971Z" fill="white"/>
<path d="M312.964 35.9092C313.069 35.9092 313.189 35.9163 313.323 35.9305C313.457 35.9447 313.591 35.9588 313.718 35.9801C313.845 36.0014 313.965 36.0227 314.077 36.044C314.183 36.0653 314.268 36.0866 314.317 36.1008L314.113 37.158C314.014 37.1225 313.859 37.08 313.64 37.0303C313.415 36.9806 313.133 36.9593 312.787 36.9593C312.562 36.9593 312.343 36.9877 312.118 37.0303C311.899 37.08 311.751 37.1084 311.681 37.1296V42.8346H310.476V36.3349C310.758 36.2285 311.117 36.1291 311.54 36.044C311.956 35.9518 312.435 35.9092 312.964 35.9092Z" fill="white"/>
<path d="M323.959 41.749V42.8417H318.553V33.7947H319.808V41.749H323.959Z" fill="white"/>
<path d="M325.799 34.8234C325.58 34.8234 325.397 34.7525 325.249 34.6106C325.101 34.4687 325.023 34.2771 325.023 34.0287C325.023 33.7804 325.101 33.5888 325.249 33.4469C325.404 33.305 325.587 33.234 325.799 33.234C326.017 33.234 326.2 33.305 326.348 33.4469C326.503 33.5888 326.574 33.7804 326.574 34.0287C326.574 34.27 326.496 34.4687 326.348 34.6106C326.2 34.7525 326.017 34.8234 325.799 34.8234ZM326.405 42.8416H325.199V36.051H326.405V42.8416Z" fill="white"/>
<path d="M331.12 32.709C331.472 32.709 331.775 32.7374 332.036 32.787C332.29 32.8367 332.466 32.8864 332.572 32.929L332.346 33.972C332.241 33.9223 332.1 33.8727 331.909 33.823C331.719 33.7733 331.487 33.7521 331.212 33.7521C330.648 33.7521 330.26 33.9082 330.035 34.2133C329.809 34.5255 329.696 34.937 329.696 35.4621V36.0511H332.29V37.0728H329.696V42.8417H328.491V35.4408C328.491 34.5681 328.702 33.9011 329.125 33.4257C329.541 32.9502 330.211 32.709 331.12 32.709Z" fill="white"/>
<path d="M333.115 39.4641C333.115 38.8609 333.199 38.3358 333.375 37.8888C333.552 37.4418 333.777 37.0657 334.059 36.7748C334.341 36.4768 334.672 36.2568 335.046 36.1078C335.419 35.9588 335.8 35.8878 336.188 35.8878C337.097 35.8878 337.788 36.1716 338.274 36.7464C338.753 37.3141 339 38.1868 339 39.3505C339 39.4002 339 39.4712 339 39.5563C339 39.6414 338.993 39.7124 338.986 39.7834H334.369C334.419 40.4858 334.623 41.0251 334.975 41.387C335.328 41.756 335.885 41.9334 336.639 41.9334C337.062 41.9334 337.421 41.8979 337.71 41.8198C337.999 41.7489 338.218 41.6708 338.366 41.607L338.535 42.6287C338.387 42.7068 338.133 42.7919 337.759 42.8771C337.393 42.9622 336.977 43.0048 336.512 43.0048C335.927 43.0048 335.419 42.9126 334.989 42.7352C334.56 42.5578 334.207 42.3094 333.932 41.9972C333.65 41.685 333.453 41.3089 333.312 40.8832C333.178 40.4433 333.115 39.9749 333.115 39.4641ZM337.745 38.7971C337.752 38.2507 337.619 37.7966 337.337 37.4489C337.055 37.0941 336.667 36.9167 336.174 36.9167C335.899 36.9167 335.652 36.9735 335.441 37.0799C335.229 37.1863 335.053 37.3282 334.905 37.5056C334.757 37.683 334.644 37.8817 334.56 38.1088C334.475 38.3358 334.426 38.57 334.397 38.8042H337.745V38.7971Z" fill="white"/>
</svg>
